<?xml version="1.0" encoding="UTF-8" standalone="no"?>
<svg
   width="157"
   height="20"
   version="1.1"
   id="svg42"
   sodipodi:docname="formatted_text.svg"
   inkscape:version="1.1.2 (b8e25be833, 2022-02-05)"
   xmlns:inkscape="http://www.inkscape.org/namespaces/inkscape"
   xmlns:sodipodi="http://sodipodi.sourceforge.net/DTD/sodipodi-0.dtd"
   xmlns="http://www.w3.org/2000/svg"
   xmlns:svg="http://www.w3.org/2000/svg"
   xmlns:rdf="http://www.w3.org/1999/02/22-rdf-syntax-ns#"
   xmlns:cc="http://creativecommons.org/ns#"
   xmlns:dc="http://purl.org/dc/elements/1.1/">
  <sodipodi:namedview
     id="namedview44"
     pagecolor="#505050"
     bordercolor="#eeeeee"
     borderopacity="1"
     inkscape:pageshadow="0"
     inkscape:pageopacity="0"
     inkscape:pagecheckerboard="0"
     showgrid="false"
     inkscape:zoom="9.4840764"
     inkscape:cx="78.44728"
     inkscape:cy="9.9640698"
     inkscape:window-width="2560"
     inkscape:window-height="1506"
     inkscape:window-x="-11"
     inkscape:window-y="-11"
     inkscape:window-maximized="1"
     inkscape:current-layer="svg42" />
  <title
     id="title2">Static Analysis - passing</title>
  <defs
     id="defs14">
    <linearGradient
       id="workflow-fill"
       x1="50%"
       y1="0%"
       x2="50%"
       y2="100%">
      <stop
         stop-color="#444D56"
         offset="0%"
         id="stop4" />
      <stop
         stop-color="#24292E"
         offset="100%"
         id="stop6" />
    </linearGradient>
    <linearGradient
       id="state-fill"
       x1="50%"
       y1="0%"
       x2="50%"
       y2="100%">
      <stop
         stop-color="#34D058"
         offset="0%"
         id="stop9" />
      <stop
         stop-color="#28A745"
         offset="100%"
         id="stop11" />
    </linearGradient>
  </defs>
  <g
     fill="none"
     fill-rule="evenodd"
     id="g40">
    <g
       font-family="'DejaVu Sans',Verdana,Geneva,sans-serif"
       font-size="11"
       id="g25">
      <path
         id="workflow-bg"
         d="M0,3 C0,1.3431 1.3552,0 3.02702703,0 L107,0 L107,20 L3.02702703,20 C1.3552,20 0,18.6569 0,17 L0,3 Z"
         fill="url(#workflow-fill)"
         fill-rule="nonzero" />
      <text
         fill="#010101"
         fill-opacity=".3"
         id="text19"><tspan
           x="22.1981982"
           y="15"
           aria-hidden="true"
           id="tspan17">Static Analysis</tspan></text>
      <text
         fill="#ffffff"
         id="text23"><tspan
           x="22.198198"
           y="14"
           id="tspan21">DearPy Gui</tspan></text>
    </g>
    <g
       transform="translate(107)"
       font-family="'DejaVu Sans',Verdana,Geneva,sans-serif"
       font-size="11"
       id="g36">
      <path
         d="M0 0h46.939C48.629 0 50 1.343 50 3v14c0 1.657-1.37 3-3.061 3H0V0z"
         id="state-bg"
         fill="url(#state-fill)"
         fill-rule="nonzero" />
      <text
         fill="#010101"
         fill-opacity=".3"
         aria-hidden="true"
         id="text30"><tspan
           x="4"
           y="15"
           id="tspan28">passing</tspan></text>
      <text
         fill="#FFFFFF"
         id="text34"><tspan
           x="4"
           y="14"
           id="tspan32">passing</tspan></text>
    </g>
    <path
       fill="#959DA5"
       d="M11 3c-3.868 0-7 3.132-7 7a6.996 6.996 0 0 0 4.786 6.641c.35.062.482-.148.482-.332 0-.166-.01-.718-.01-1.304-1.758.324-2.213-.429-2.353-.822-.079-.202-.42-.823-.717-.99-.245-.13-.595-.454-.01-.463.552-.009.946.508 1.077.718.63 1.058 1.636.76 2.039.577.061-.455.245-.761.446-.936-1.557-.175-3.185-.779-3.185-3.456 0-.762.271-1.392.718-1.882-.07-.175-.315-.892.07-1.855 0 0 .586-.183 1.925.718a6.5 6.5 0 0 1 1.75-.236 6.5 6.5 0 0 1 1.75.236c1.338-.91 1.925-.718 1.925-.718.385.963.14 1.68.07 1.855.446.49.717 1.112.717 1.882 0 2.686-1.636 3.28-3.194 3.456.254.219.473.639.473 1.295 0 .936-.009 1.689-.009 1.925 0 .184.131.402.481.332A7.011 7.011 0 0 0 18 10c0-3.867-3.133-7-7-7z"
       id="path38" />
  </g>
  <metadata
     id="metadata7510">
    <rdf:RDF>
      <cc:Work
         rdf:about="">
        <dc:title>Static Analysis - passing</dc:title>
      </cc:Work>
    </rdf:RDF>
  </metadata>
</svg>
